<?xml version="1.0" standalone="no"?>
<!DOCTYPE svg PUBLIC "-//W3C//DTD SVG 20010904//EN"
 "http://www.w3.org/TR/2001/REC-SVG-20010904/DTD/svg10.dtd">
<svg version="1.0" xmlns="http://www.w3.org/2000/svg"
 width="512.000000pt" height="512.000000pt" viewBox="0 0 512.000000 512.000000"
 preserveAspectRatio="xMidYMid meet">
<metadata>
Created by potrace 1.14, written by Peter Selinger 2001-2017
</metadata>
<g transform="translate(0.000000,512.000000) scale(0.100000,-0.100000)"
fill="#000000" stroke="none">
<path d="M2467 4684 c-1 -1 -40 -4 -86 -8 -73 -5 -206 -25 -278 -41 -13 -3
-31 -7 -42 -9 -71 -16 -238 -72 -332 -112 -296 -125 -563 -319 -773 -563 -84
-97 -195 -252 -235 -326 -12 -22 -26 -47 -31 -55 -43 -66 -139 -305 -179 -445
-23 -81 -57 -268 -67 -370 -15 -145 -7 -381 16 -515 24 -143 23 -136 45 -220
47 -181 135 -388 236 -557 225 -375 606 -703 999 -863 30 -12 64 -26 75 -30
73 -31 232 -75 340 -95 159 -29 248 -38 400 -38 105 0 240 8 293 17 22 4 111
17 114 17 2 0 46 11 98 25 52 13 102 26 110 29 150 38 427 171 581 277 136 93
189 138 321 269 390 391 611 926 611 1484 0 105 -11 283 -18 295 -2 3 -6 30
-10 60 -3 30 -8 63 -11 72 -3 9 -7 27 -9 40 -27 140 -117 379 -206 547 -43 81
-168 274 -188 291 -3 3 -24 28 -46 55 -111 141 -294 304 -470 420 -346 228
-721 342 -1153 349 -57 1 -104 1 -105 0z m1195 -1086 c164 -78 260 -236 252
-418 -3 -70 -32 -163 -70 -220 -32 -47 -1358 -1375 -1410 -1410 -69 -48 -147
-69 -249 -66 -77 2 -100 7 -160 35 -64 29 -95 57 -393 354 -178 177 -336 342
-352 366 -64 95 -91 230 -68 336 15 69 68 164 123 219 132 134 331 166 504 82
60 -28 69 -37 228 -195 l134 -134 497 496 c273 273 508 505 522 515 76 58 167
83 282 78 74 -3 98 -8 160 -38z"/>
</g>
</svg>
